<mxfile host="app.diagrams.net" agent="Mozilla/5.0 (Windows NT 10.0; Win64; x64; rv:144.0) Gecko/20100101 Firefox/144.0" version="28.2.5">
  <diagram name="Страница — 1" id="a82zqfGy1LL3a5zO2xGW">
    <mxGraphModel dx="2128" dy="1929" grid="1" gridSize="10" guides="1" tooltips="1" connect="1" arrows="1" fold="1" page="1" pageScale="1" pageWidth="827" pageHeight="1169" math="0" shadow="0">
      <root>
        <mxCell id="0" />
        <mxCell id="1" parent="0" />
        <mxCell id="Jp8V5USuIbd7TFkA5wAv-1" value="" style="swimlane;startSize=0;swimlaneLine=1;" parent="1" vertex="1">
          <mxGeometry x="90" y="-240" width="1110" height="930" as="geometry">
            <mxRectangle x="90" y="-240" width="50" height="40" as="alternateBounds" />
          </mxGeometry>
        </mxCell>
        <mxCell id="Jp8V5USuIbd7TFkA5wAv-22" value="" style="endArrow=classic;html=1;rounded=0;exitX=1;exitY=0.5;exitDx=0;exitDy=0;entryX=0;entryY=0.5;entryDx=0;entryDy=0;dashed=1;" parent="Jp8V5USuIbd7TFkA5wAv-1" source="Jp8V5USuIbd7TFkA5wAv-15" target="Jp8V5USuIbd7TFkA5wAv-21" edge="1">
          <mxGeometry width="50" height="50" relative="1" as="geometry">
            <mxPoint x="170" y="550" as="sourcePoint" />
            <mxPoint x="220" y="500" as="targetPoint" />
          </mxGeometry>
        </mxCell>
        <mxCell id="Jp8V5USuIbd7TFkA5wAv-23" value="&lt;pre class=&quot;text-sm w-full overflow-x-auto dark:bg-zinc-900 p-4 border border-zinc-200 dark:border-zinc-700 rounded-xl dark:text-zinc-50 text-zinc-900&quot;&gt;&lt;code class=&quot;whitespace-pre-wrap break-words&quot;&gt;&amp;lt;&amp;lt;&lt;/code&gt;include&lt;code class=&quot;whitespace-pre-wrap break-words&quot;&gt;&amp;gt;&amp;gt;&lt;/code&gt;&lt;/pre&gt;" style="text;html=1;align=center;verticalAlign=middle;whiteSpace=wrap;rounded=0;" parent="Jp8V5USuIbd7TFkA5wAv-1" vertex="1">
          <mxGeometry x="290" y="190" width="60" height="30" as="geometry" />
        </mxCell>
        <mxCell id="Jp8V5USuIbd7TFkA5wAv-25" value="&lt;pre class=&quot;text-sm w-full overflow-x-auto dark:bg-zinc-900 p-4 border border-zinc-200 dark:border-zinc-700 rounded-xl dark:text-zinc-50 text-zinc-900&quot;&gt;&lt;code class=&quot;whitespace-pre-wrap break-words&quot;&gt;&amp;lt;&amp;lt;&lt;/code&gt;include&lt;code class=&quot;whitespace-pre-wrap break-words&quot;&gt;&amp;gt;&amp;gt;&lt;/code&gt;&lt;/pre&gt;" style="text;html=1;align=center;verticalAlign=middle;whiteSpace=wrap;rounded=0;" parent="Jp8V5USuIbd7TFkA5wAv-1" vertex="1">
          <mxGeometry x="290" y="310" width="60" height="30" as="geometry" />
        </mxCell>
        <mxCell id="Jp8V5USuIbd7TFkA5wAv-26" value="" style="endArrow=classic;html=1;rounded=0;exitX=1;exitY=0.5;exitDx=0;exitDy=0;entryX=0;entryY=0.5;entryDx=0;entryDy=0;dashed=1;" parent="Jp8V5USuIbd7TFkA5wAv-1" source="Jp8V5USuIbd7TFkA5wAv-16" target="Jp8V5USuIbd7TFkA5wAv-24" edge="1">
          <mxGeometry width="50" height="50" relative="1" as="geometry">
            <mxPoint x="170" y="490" as="sourcePoint" />
            <mxPoint x="220" y="440" as="targetPoint" />
          </mxGeometry>
        </mxCell>
        <mxCell id="Jp8V5USuIbd7TFkA5wAv-54" value="" style="endArrow=classic;html=1;rounded=0;exitX=1;exitY=0.5;exitDx=0;exitDy=0;entryX=0;entryY=0.5;entryDx=0;entryDy=0;dashed=1;" parent="Jp8V5USuIbd7TFkA5wAv-1" source="Jp8V5USuIbd7TFkA5wAv-24" target="Jp8V5USuIbd7TFkA5wAv-51" edge="1">
          <mxGeometry width="50" height="50" relative="1" as="geometry">
            <mxPoint x="560" y="420" as="sourcePoint" />
            <mxPoint x="629" y="605" as="targetPoint" />
          </mxGeometry>
        </mxCell>
        <mxCell id="Jp8V5USuIbd7TFkA5wAv-56" value="" style="endArrow=classic;html=1;rounded=0;entryX=0;entryY=0.5;entryDx=0;entryDy=0;dashed=1;exitX=1;exitY=0.5;exitDx=0;exitDy=0;" parent="Jp8V5USuIbd7TFkA5wAv-1" source="Jp8V5USuIbd7TFkA5wAv-21" target="Jp8V5USuIbd7TFkA5wAv-52" edge="1">
          <mxGeometry width="50" height="50" relative="1" as="geometry">
            <mxPoint x="670" y="320" as="sourcePoint" />
            <mxPoint x="741" y="505" as="targetPoint" />
          </mxGeometry>
        </mxCell>
        <mxCell id="Jp8V5USuIbd7TFkA5wAv-66" value="&lt;pre class=&quot;text-sm w-full overflow-x-auto dark:bg-zinc-900 p-4 border border-zinc-200 dark:border-zinc-700 rounded-xl dark:text-zinc-50 text-zinc-900&quot;&gt;&lt;code class=&quot;whitespace-pre-wrap break-words&quot;&gt;&amp;lt;&amp;lt;&lt;/code&gt;include&lt;code class=&quot;whitespace-pre-wrap break-words&quot;&gt;&amp;gt;&amp;gt;&lt;/code&gt;&lt;/pre&gt;" style="text;html=1;align=center;verticalAlign=middle;whiteSpace=wrap;rounded=0;" parent="Jp8V5USuIbd7TFkA5wAv-1" vertex="1">
          <mxGeometry x="500" y="720" width="60" height="30" as="geometry" />
        </mxCell>
        <mxCell id="Jp8V5USuIbd7TFkA5wAv-67" value="&lt;pre class=&quot;text-sm w-full overflow-x-auto dark:bg-zinc-900 p-4 border border-zinc-200 dark:border-zinc-700 rounded-xl dark:text-zinc-50 text-zinc-900&quot;&gt;&lt;code class=&quot;whitespace-pre-wrap break-words&quot;&gt;&amp;lt;&amp;lt;&lt;/code&gt;include&lt;code class=&quot;whitespace-pre-wrap break-words&quot;&gt;&amp;gt;&amp;gt;&lt;/code&gt;&lt;/pre&gt;" style="text;html=1;align=center;verticalAlign=middle;whiteSpace=wrap;rounded=0;" parent="Jp8V5USuIbd7TFkA5wAv-1" vertex="1">
          <mxGeometry x="500" y="820" width="60" height="30" as="geometry" />
        </mxCell>
        <mxCell id="Jp8V5USuIbd7TFkA5wAv-68" value="&lt;pre class=&quot;text-sm w-full overflow-x-auto dark:bg-zinc-900 p-4 border border-zinc-200 dark:border-zinc-700 rounded-xl dark:text-zinc-50 text-zinc-900&quot;&gt;&lt;code class=&quot;whitespace-pre-wrap break-words&quot;&gt;&amp;lt;&amp;lt;&lt;/code&gt;include&lt;code class=&quot;whitespace-pre-wrap break-words&quot;&gt;&amp;gt;&amp;gt;&lt;/code&gt;&lt;/pre&gt;" style="text;html=1;align=center;verticalAlign=middle;whiteSpace=wrap;rounded=0;rotation=0;" parent="Jp8V5USuIbd7TFkA5wAv-1" vertex="1">
          <mxGeometry x="500" y="520" width="60" height="30" as="geometry" />
        </mxCell>
        <mxCell id="Jp8V5USuIbd7TFkA5wAv-76" value="&lt;pre class=&quot;text-sm w-full overflow-x-auto dark:bg-zinc-900 p-4 border border-zinc-200 dark:border-zinc-700 rounded-xl dark:text-zinc-50 text-zinc-900&quot;&gt;&lt;code class=&quot;whitespace-pre-wrap break-words&quot;&gt;&amp;lt;&amp;lt;&lt;/code&gt;include&lt;code class=&quot;whitespace-pre-wrap break-words&quot;&gt;&amp;gt;&amp;gt;&lt;/code&gt;&lt;/pre&gt;" style="text;html=1;align=center;verticalAlign=middle;whiteSpace=wrap;rounded=0;rotation=0;" parent="Jp8V5USuIbd7TFkA5wAv-1" vertex="1">
          <mxGeometry x="500" y="570" width="60" height="30" as="geometry" />
        </mxCell>
        <mxCell id="Jp8V5USuIbd7TFkA5wAv-85" value="" style="swimlane;startSize=0;" parent="Jp8V5USuIbd7TFkA5wAv-1" vertex="1">
          <mxGeometry x="830" y="130" width="269" height="250" as="geometry">
            <mxRectangle x="711" y="140" width="50" height="40" as="alternateBounds" />
          </mxGeometry>
        </mxCell>
        <mxCell id="Jp8V5USuIbd7TFkA5wAv-86" value="Анализ данных" style="text;html=1;align=center;verticalAlign=middle;whiteSpace=wrap;rounded=0;" parent="Jp8V5USuIbd7TFkA5wAv-85" vertex="1">
          <mxGeometry x="81" width="107" height="30" as="geometry" />
        </mxCell>
        <mxCell id="Jp8V5USuIbd7TFkA5wAv-51" value="Анализ неструктурированных данных" style="ellipse;whiteSpace=wrap;html=1;" parent="Jp8V5USuIbd7TFkA5wAv-85" vertex="1">
          <mxGeometry x="36.5" y="50" width="196" height="70" as="geometry" />
        </mxCell>
        <mxCell id="Jp8V5USuIbd7TFkA5wAv-52" value="Анализ структурированных данных" style="ellipse;whiteSpace=wrap;html=1;" parent="Jp8V5USuIbd7TFkA5wAv-85" vertex="1">
          <mxGeometry x="39" y="170" width="196" height="70" as="geometry" />
        </mxCell>
        <mxCell id="Jp8V5USuIbd7TFkA5wAv-88" value="" style="swimlane;startSize=0;" parent="Jp8V5USuIbd7TFkA5wAv-1" vertex="1">
          <mxGeometry x="50" y="130" width="230" height="390" as="geometry" />
        </mxCell>
        <mxCell id="Jp8V5USuIbd7TFkA5wAv-16" value="&lt;div&gt;Запросить визуализацию&lt;/div&gt;" style="ellipse;whiteSpace=wrap;html=1;" parent="Jp8V5USuIbd7TFkA5wAv-88" vertex="1">
          <mxGeometry x="17" y="50" width="196" height="70" as="geometry" />
        </mxCell>
        <mxCell id="Jp8V5USuIbd7TFkA5wAv-15" value="Задать вопрос на&amp;nbsp;естественном языке" style="ellipse;whiteSpace=wrap;html=1;" parent="Jp8V5USuIbd7TFkA5wAv-88" vertex="1">
          <mxGeometry x="17" y="170" width="196" height="70" as="geometry" />
        </mxCell>
        <mxCell id="Jp8V5USuIbd7TFkA5wAv-62" value="Загрузить документы" style="ellipse;whiteSpace=wrap;html=1;" parent="Jp8V5USuIbd7TFkA5wAv-88" vertex="1">
          <mxGeometry x="17" y="280" width="196" height="70" as="geometry" />
        </mxCell>
        <mxCell id="Jp8V5USuIbd7TFkA5wAv-89" value="Интерфейс взаимодействия" style="text;html=1;align=center;verticalAlign=middle;whiteSpace=wrap;rounded=0;" parent="Jp8V5USuIbd7TFkA5wAv-88" vertex="1">
          <mxGeometry x="22.5" width="185" height="30" as="geometry" />
        </mxCell>
        <mxCell id="Jp8V5USuIbd7TFkA5wAv-91" value="" style="swimlane;startSize=0;" parent="Jp8V5USuIbd7TFkA5wAv-1" vertex="1">
          <mxGeometry x="50" y="590" width="250" height="330" as="geometry" />
        </mxCell>
        <mxCell id="Jp8V5USuIbd7TFkA5wAv-18" value="Настройка параметров LMM" style="ellipse;whiteSpace=wrap;html=1;" parent="Jp8V5USuIbd7TFkA5wAv-91" vertex="1">
          <mxGeometry x="27" y="120" width="196" height="70" as="geometry" />
        </mxCell>
        <mxCell id="Jp8V5USuIbd7TFkA5wAv-20" value="Управление векторной БД" style="ellipse;whiteSpace=wrap;html=1;" parent="Jp8V5USuIbd7TFkA5wAv-91" vertex="1">
          <mxGeometry x="31" y="220" width="196" height="70" as="geometry" />
        </mxCell>
        <mxCell id="Jp8V5USuIbd7TFkA5wAv-92" value="Управление системой" style="text;html=1;align=center;verticalAlign=middle;whiteSpace=wrap;rounded=0;" parent="Jp8V5USuIbd7TFkA5wAv-91" vertex="1">
          <mxGeometry x="55" width="140" height="30" as="geometry" />
        </mxCell>
        <mxCell id="Jp8V5USuIbd7TFkA5wAv-19" value="Мониторинг производительности" style="ellipse;whiteSpace=wrap;html=1;" parent="Jp8V5USuIbd7TFkA5wAv-91" vertex="1">
          <mxGeometry x="27" y="30" width="196" height="70" as="geometry" />
        </mxCell>
        <mxCell id="Jp8V5USuIbd7TFkA5wAv-94" value="" style="swimlane;startSize=0;" parent="Jp8V5USuIbd7TFkA5wAv-1" vertex="1">
          <mxGeometry x="360" y="130" width="460" height="340" as="geometry">
            <mxRectangle x="350" y="130" width="50" height="40" as="alternateBounds" />
          </mxGeometry>
        </mxCell>
        <mxCell id="Jp8V5USuIbd7TFkA5wAv-24" value="Генерация визуализаций" style="ellipse;whiteSpace=wrap;html=1;" parent="Jp8V5USuIbd7TFkA5wAv-94" vertex="1">
          <mxGeometry x="10" y="50" width="196" height="70" as="geometry" />
        </mxCell>
        <mxCell id="Jp8V5USuIbd7TFkA5wAv-21" value="Обработка запросов" style="ellipse;whiteSpace=wrap;html=1;" parent="Jp8V5USuIbd7TFkA5wAv-94" vertex="1">
          <mxGeometry x="10" y="170" width="196" height="70" as="geometry" />
        </mxCell>
        <mxCell id="Jp8V5USuIbd7TFkA5wAv-48" value="&lt;div&gt;Генерация ответов&lt;/div&gt;" style="ellipse;whiteSpace=wrap;html=1;" parent="Jp8V5USuIbd7TFkA5wAv-94" vertex="1">
          <mxGeometry x="230" y="240" width="196" height="70" as="geometry" />
        </mxCell>
        <mxCell id="Jp8V5USuIbd7TFkA5wAv-49" value="" style="endArrow=classic;html=1;rounded=0;exitX=1;exitY=1;exitDx=0;exitDy=0;entryX=0;entryY=0.5;entryDx=0;entryDy=0;dashed=1;edgeStyle=orthogonalEdgeStyle;curved=1;" parent="Jp8V5USuIbd7TFkA5wAv-94" source="Jp8V5USuIbd7TFkA5wAv-21" target="Jp8V5USuIbd7TFkA5wAv-48" edge="1">
          <mxGeometry width="50" height="50" relative="1" as="geometry">
            <mxPoint x="310" y="190" as="sourcePoint" />
            <mxPoint x="410" y="190" as="targetPoint" />
          </mxGeometry>
        </mxCell>
        <mxCell id="Jp8V5USuIbd7TFkA5wAv-96" value="&lt;div&gt;Обработка&lt;/div&gt;" style="text;html=1;align=center;verticalAlign=middle;whiteSpace=wrap;rounded=0;" parent="Jp8V5USuIbd7TFkA5wAv-94" vertex="1">
          <mxGeometry x="70" width="320" height="30" as="geometry" />
        </mxCell>
        <mxCell id="Jp8V5USuIbd7TFkA5wAv-71" value="&lt;pre class=&quot;text-sm w-full overflow-x-auto dark:bg-zinc-900 p-4 border border-zinc-200 dark:border-zinc-700 rounded-xl dark:text-zinc-50 text-zinc-900&quot;&gt;&lt;code class=&quot;whitespace-pre-wrap break-words&quot;&gt;&amp;lt;&amp;lt;&lt;/code&gt;include&lt;code class=&quot;whitespace-pre-wrap break-words&quot;&gt;&amp;gt;&amp;gt;&lt;/code&gt;&lt;/pre&gt;" style="text;html=1;align=center;verticalAlign=middle;whiteSpace=wrap;rounded=0;rotation=0;" parent="Jp8V5USuIbd7TFkA5wAv-94" vertex="1">
          <mxGeometry x="270" y="110" width="60" height="30" as="geometry" />
        </mxCell>
        <mxCell id="Jp8V5USuIbd7TFkA5wAv-72" value="&lt;pre class=&quot;text-sm w-full overflow-x-auto dark:bg-zinc-900 p-4 border border-zinc-200 dark:border-zinc-700 rounded-xl dark:text-zinc-50 text-zinc-900&quot;&gt;&lt;code class=&quot;whitespace-pre-wrap break-words&quot;&gt;&amp;lt;&amp;lt;&lt;/code&gt;include&lt;code class=&quot;whitespace-pre-wrap break-words&quot;&gt;&amp;gt;&amp;gt;&lt;/code&gt;&lt;/pre&gt;" style="text;html=1;align=center;verticalAlign=middle;whiteSpace=wrap;rounded=0;rotation=0;" parent="Jp8V5USuIbd7TFkA5wAv-94" vertex="1">
          <mxGeometry x="270.00076211353314" y="150.00038105676663" width="60" height="30" as="geometry" />
        </mxCell>
        <mxCell id="Jp8V5USuIbd7TFkA5wAv-57" value="&lt;pre class=&quot;text-sm w-full overflow-x-auto dark:bg-zinc-900 p-4 border border-zinc-200 dark:border-zinc-700 rounded-xl dark:text-zinc-50 text-zinc-900&quot;&gt;&lt;code class=&quot;whitespace-pre-wrap break-words&quot;&gt;&amp;lt;&amp;lt;&lt;/code&gt;include&lt;code class=&quot;whitespace-pre-wrap break-words&quot;&gt;&amp;gt;&amp;gt;&lt;/code&gt;&lt;/pre&gt;" style="text;html=1;align=center;verticalAlign=middle;whiteSpace=wrap;rounded=0;" parent="Jp8V5USuIbd7TFkA5wAv-94" vertex="1">
          <mxGeometry x="270" y="180" width="60" height="30" as="geometry" />
        </mxCell>
        <mxCell id="Jp8V5USuIbd7TFkA5wAv-50" value="&lt;pre class=&quot;text-sm w-full overflow-x-auto dark:bg-zinc-900 p-4 border border-zinc-200 dark:border-zinc-700 rounded-xl dark:text-zinc-50 text-zinc-900&quot;&gt;&lt;code class=&quot;whitespace-pre-wrap break-words&quot;&gt;&amp;lt;&amp;lt;&lt;/code&gt;include&lt;code class=&quot;whitespace-pre-wrap break-words&quot;&gt;&amp;gt;&amp;gt;&lt;/code&gt;&lt;/pre&gt;" style="text;html=1;align=center;verticalAlign=middle;whiteSpace=wrap;rounded=0;" parent="Jp8V5USuIbd7TFkA5wAv-94" vertex="1">
          <mxGeometry x="270" y="60" width="60" height="30" as="geometry" />
        </mxCell>
        <mxCell id="Jp8V5USuIbd7TFkA5wAv-95" value="&lt;font style=&quot;font-size: 23px;&quot;&gt;AI-ассистент&lt;/font&gt;" style="text;html=1;align=center;verticalAlign=middle;whiteSpace=wrap;rounded=0;" parent="Jp8V5USuIbd7TFkA5wAv-1" vertex="1">
          <mxGeometry x="393" y="10" width="324" height="30" as="geometry" />
        </mxCell>
        <mxCell id="Jp8V5USuIbd7TFkA5wAv-99" value="" style="endArrow=classic;html=1;rounded=0;exitX=1;exitY=1;exitDx=0;exitDy=0;entryX=0;entryY=0;entryDx=0;entryDy=0;dashed=1;edgeStyle=orthogonalEdgeStyle;curved=1;" parent="Jp8V5USuIbd7TFkA5wAv-1" source="Jp8V5USuIbd7TFkA5wAv-24" target="Jp8V5USuIbd7TFkA5wAv-52" edge="1">
          <mxGeometry width="50" height="50" relative="1" as="geometry">
            <mxPoint x="650" y="490" as="sourcePoint" />
            <mxPoint x="700" y="440" as="targetPoint" />
            <Array as="points">
              <mxPoint x="538" y="270" />
              <mxPoint x="897" y="270" />
            </Array>
          </mxGeometry>
        </mxCell>
        <mxCell id="Jp8V5USuIbd7TFkA5wAv-100" value="" style="endArrow=classic;html=1;rounded=0;exitX=1;exitY=0;exitDx=0;exitDy=0;entryX=0;entryY=1;entryDx=0;entryDy=0;dashed=1;edgeStyle=orthogonalEdgeStyle;curved=1;" parent="Jp8V5USuIbd7TFkA5wAv-1" source="Jp8V5USuIbd7TFkA5wAv-21" target="Jp8V5USuIbd7TFkA5wAv-51" edge="1">
          <mxGeometry width="50" height="50" relative="1" as="geometry">
            <mxPoint x="650" y="490" as="sourcePoint" />
            <mxPoint x="700" y="440" as="targetPoint" />
          </mxGeometry>
        </mxCell>
        <mxCell id="Jp8V5USuIbd7TFkA5wAv-3" value="&lt;div&gt;Пользователь&lt;/div&gt;&lt;div&gt;&lt;br&gt;&lt;/div&gt;" style="shape=umlActor;verticalLabelPosition=bottom;verticalAlign=top;html=1;outlineConnect=0;" parent="1" vertex="1">
          <mxGeometry x="-40" y="140" width="30" height="60" as="geometry" />
        </mxCell>
        <mxCell id="Jp8V5USuIbd7TFkA5wAv-14" style="edgeStyle=orthogonalEdgeStyle;rounded=0;orthogonalLoop=1;jettySize=auto;html=1;" parent="1" source="Jp8V5USuIbd7TFkA5wAv-4" target="Jp8V5USuIbd7TFkA5wAv-3" edge="1">
          <mxGeometry relative="1" as="geometry" />
        </mxCell>
        <mxCell id="Jp8V5USuIbd7TFkA5wAv-4" value="&lt;div&gt;Администратор&lt;/div&gt;&lt;div&gt;&lt;br&gt;&lt;/div&gt;" style="shape=umlActor;verticalLabelPosition=bottom;verticalAlign=top;html=1;outlineConnect=0;" parent="1" vertex="1">
          <mxGeometry x="-40" y="480" width="30" height="60" as="geometry" />
        </mxCell>
        <mxCell id="Jp8V5USuIbd7TFkA5wAv-43" value="" style="endArrow=none;html=1;rounded=0;entryX=0;entryY=0.5;entryDx=0;entryDy=0;" parent="1" target="Jp8V5USuIbd7TFkA5wAv-15" edge="1">
          <mxGeometry width="50" height="50" relative="1" as="geometry">
            <mxPoint y="180" as="sourcePoint" />
            <mxPoint x="510" y="270" as="targetPoint" />
          </mxGeometry>
        </mxCell>
        <mxCell id="Jp8V5USuIbd7TFkA5wAv-44" value="" style="endArrow=none;html=1;rounded=0;entryX=0;entryY=0.5;entryDx=0;entryDy=0;" parent="1" target="Jp8V5USuIbd7TFkA5wAv-16" edge="1">
          <mxGeometry width="50" height="50" relative="1" as="geometry">
            <mxPoint y="170" as="sourcePoint" />
            <mxPoint x="510" y="270" as="targetPoint" />
          </mxGeometry>
        </mxCell>
        <mxCell id="Jp8V5USuIbd7TFkA5wAv-45" value="" style="endArrow=none;html=1;rounded=0;entryX=0;entryY=0.5;entryDx=0;entryDy=0;" parent="1" target="Jp8V5USuIbd7TFkA5wAv-18" edge="1">
          <mxGeometry width="50" height="50" relative="1" as="geometry">
            <mxPoint y="520" as="sourcePoint" />
            <mxPoint x="510" y="270" as="targetPoint" />
          </mxGeometry>
        </mxCell>
        <mxCell id="Jp8V5USuIbd7TFkA5wAv-46" value="" style="endArrow=none;html=1;rounded=0;entryX=0;entryY=0.5;entryDx=0;entryDy=0;" parent="1" target="Jp8V5USuIbd7TFkA5wAv-19" edge="1">
          <mxGeometry width="50" height="50" relative="1" as="geometry">
            <mxPoint y="510" as="sourcePoint" />
            <mxPoint x="510" y="270" as="targetPoint" />
          </mxGeometry>
        </mxCell>
        <mxCell id="Jp8V5USuIbd7TFkA5wAv-47" value="" style="endArrow=none;html=1;rounded=0;entryX=0;entryY=0.5;entryDx=0;entryDy=0;" parent="1" target="Jp8V5USuIbd7TFkA5wAv-20" edge="1">
          <mxGeometry width="50" height="50" relative="1" as="geometry">
            <mxPoint y="530" as="sourcePoint" />
            <mxPoint x="510" y="270" as="targetPoint" />
          </mxGeometry>
        </mxCell>
        <mxCell id="Jp8V5USuIbd7TFkA5wAv-63" value="" style="endArrow=none;html=1;rounded=0;entryX=0;entryY=0.5;entryDx=0;entryDy=0;" parent="1" target="Jp8V5USuIbd7TFkA5wAv-62" edge="1">
          <mxGeometry width="50" height="50" relative="1" as="geometry">
            <mxPoint y="190" as="sourcePoint" />
            <mxPoint x="264" y="190" as="targetPoint" />
          </mxGeometry>
        </mxCell>
        <mxCell id="Jp8V5USuIbd7TFkA5wAv-28" value="" style="endArrow=classic;html=1;rounded=0;exitX=1;exitY=0.5;exitDx=0;exitDy=0;entryX=0;entryY=0.5;entryDx=0;entryDy=0;dashed=1;" parent="1" source="Jp8V5USuIbd7TFkA5wAv-18" target="Jp8V5USuIbd7TFkA5wAv-27" edge="1">
          <mxGeometry width="50" height="50" relative="1" as="geometry">
            <mxPoint x="411" y="380" as="sourcePoint" />
            <mxPoint x="431" y="385" as="targetPoint" />
          </mxGeometry>
        </mxCell>
        <mxCell id="Jp8V5USuIbd7TFkA5wAv-31" value="" style="endArrow=classic;html=1;rounded=0;exitX=1;exitY=0.5;exitDx=0;exitDy=0;entryX=0;entryY=0.5;entryDx=0;entryDy=0;dashed=1;" parent="1" source="Jp8V5USuIbd7TFkA5wAv-20" target="Jp8V5USuIbd7TFkA5wAv-30" edge="1">
          <mxGeometry width="50" height="50" relative="1" as="geometry">
            <mxPoint x="351" y="310" as="sourcePoint" />
            <mxPoint x="401" y="260" as="targetPoint" />
          </mxGeometry>
        </mxCell>
        <mxCell id="Jp8V5USuIbd7TFkA5wAv-82" value="" style="swimlane;startSize=0;" parent="1" vertex="1">
          <mxGeometry x="1220" y="320" width="290" height="370" as="geometry">
            <mxRectangle x="1220" y="240" width="50" height="40" as="alternateBounds" />
          </mxGeometry>
        </mxCell>
        <mxCell id="Jp8V5USuIbd7TFkA5wAv-64" value="Файловое хранилище" style="ellipse;whiteSpace=wrap;html=1;" parent="Jp8V5USuIbd7TFkA5wAv-82" vertex="1">
          <mxGeometry x="60" y="40" width="196" height="70" as="geometry" />
        </mxCell>
        <mxCell id="Jp8V5USuIbd7TFkA5wAv-27" value="Ollama LMM" style="ellipse;whiteSpace=wrap;html=1;" parent="Jp8V5USuIbd7TFkA5wAv-82" vertex="1">
          <mxGeometry x="60" y="150" width="196" height="70" as="geometry" />
        </mxCell>
        <mxCell id="Jp8V5USuIbd7TFkA5wAv-30" value="Векторная БД" style="ellipse;whiteSpace=wrap;html=1;" parent="Jp8V5USuIbd7TFkA5wAv-82" vertex="1">
          <mxGeometry x="60" y="250" width="196" height="70" as="geometry" />
        </mxCell>
        <mxCell id="Jp8V5USuIbd7TFkA5wAv-87" value="Внешние системы" style="text;html=1;align=center;verticalAlign=middle;whiteSpace=wrap;rounded=0;" parent="Jp8V5USuIbd7TFkA5wAv-82" vertex="1">
          <mxGeometry x="104.5" width="107" height="30" as="geometry" />
        </mxCell>
        <mxCell id="Jp8V5USuIbd7TFkA5wAv-90" value="" style="endArrow=classic;html=1;rounded=0;exitX=1;exitY=1;exitDx=0;exitDy=0;entryX=0;entryY=0;entryDx=0;entryDy=0;dashed=1;edgeStyle=orthogonalEdgeStyle;curved=1;" parent="1" source="Jp8V5USuIbd7TFkA5wAv-62" target="Jp8V5USuIbd7TFkA5wAv-30" edge="1">
          <mxGeometry width="50" height="50" relative="1" as="geometry">
            <mxPoint x="660" y="270" as="sourcePoint" />
            <mxPoint x="710" y="220" as="targetPoint" />
            <Array as="points">
              <mxPoint x="324" y="360" />
              <mxPoint x="780" y="360" />
              <mxPoint x="780" y="540" />
              <mxPoint x="1309" y="540" />
            </Array>
          </mxGeometry>
        </mxCell>
        <mxCell id="Jp8V5USuIbd7TFkA5wAv-109" value="" style="endArrow=classic;html=1;rounded=0;exitX=1;exitY=0.5;exitDx=0;exitDy=0;entryX=0;entryY=0.5;entryDx=0;entryDy=0;dashed=1;edgeStyle=orthogonalEdgeStyle;curved=1;" parent="1" source="Jp8V5USuIbd7TFkA5wAv-62" target="Jp8V5USuIbd7TFkA5wAv-64" edge="1">
          <mxGeometry width="50" height="50" relative="1" as="geometry">
            <mxPoint x="760" y="250" as="sourcePoint" />
            <mxPoint x="810" y="200" as="targetPoint" />
            <Array as="points">
              <mxPoint x="353" y="310" />
              <mxPoint x="1120" y="310" />
              <mxPoint x="1120" y="395" />
            </Array>
          </mxGeometry>
        </mxCell>
      </root>
    </mxGraphModel>
  </diagram>
</mxfile>
